<svg id="svg" version="1.1" width="1000" height="369" xmlns="http://www.w3.org/2000/svg" xmlns:xlink="http://www.w3.org/1999/xlink" style="display: block;"><g id="svgg"><path id="path0" d="M100.399 3.355 C 96.421 6.177,95.005 7.818,91.639 13.506 C 89.108 17.783,80.160 36.273,79.398 38.800 C 79.232 39.350,78.658 40.673,78.121 41.740 C 77.079 43.814,75.476 48.131,72.529 56.800 C 71.519 59.770,70.437 62.495,70.124 62.856 C 69.043 64.103,63.245 67.236,59.929 68.364 C 49.863 71.790,48.400 72.844,48.400 76.668 C 48.400 80.771,51.971 81.023,59.151 77.425 C 66.587 73.698,66.687 73.985,61.833 85.125 C 58.297 93.239,52.569 104.275,49.960 108.000 C 49.113 109.210,47.688 111.412,46.795 112.894 C 43.559 118.263,42.254 118.766,41.213 115.046 C 39.383 108.509,41.206 104.267,49.396 96.008 C 56.760 88.583,58.000 86.400,54.856 86.400 C 52.160 86.400,39.785 96.409,37.050 100.800 C 31.862 109.131,34.425 125.161,41.142 126.389 C 45.026 127.100,46.752 125.902,50.437 119.941 C 51.749 117.817,53.577 115.152,54.499 114.019 C 57.835 109.918,72.596 80.415,74.822 73.400 C 77.445 65.134,78.308 63.761,85.643 56.200 C 89.627 52.092,92.375 48.514,94.246 45.000 C 94.831 43.900,96.608 40.750,98.194 38.000 C 99.780 35.250,101.997 31.200,103.119 29.000 C 112.834 9.959,111.312 -4.388,100.399 3.355 M199.926 5.484 C 193.928 6.401,182.702 11.963,177.871 16.412 C 176.072 18.069,173.385 20.380,171.900 21.547 C 169.384 23.524,168.671 24.400,169.576 24.400 C 169.782 24.400,171.327 23.413,173.009 22.207 C 174.690 21.000,176.809 19.813,177.716 19.569 C 178.624 19.324,180.945 18.332,182.873 17.363 C 194.120 11.715,203.107 9.716,205.266 12.383 C 207.176 14.741,205.799 20.980,202.736 23.852 C 200.379 26.061,192.857 31.565,191.314 32.210 C 187.273 33.898,183.969 32.262,185.965 29.562 C 186.961 28.215,187.017 27.288,186.177 26.089 C 185.072 24.511,184.058 24.983,180.425 28.763 C 177.658 31.642,176.661 32.417,175.236 32.796 C 172.220 33.598,171.735 34.120,171.421 36.894 C 170.979 40.802,169.308 42.939,156.975 55.361 C 155.862 56.482,152.368 60.100,149.212 63.400 C 146.056 66.700,141.792 71.148,139.737 73.284 C 135.730 77.450,135.053 79.053,136.700 80.484 C 138.852 82.354,141.099 81.625,143.141 78.394 C 144.478 76.280,150.832 69.400,168.811 50.597 C 171.347 47.945,174.038 45.008,174.792 44.070 C 177.045 41.266,178.058 40.846,183.287 40.547 L 187.897 40.284 189.748 42.642 L 191.599 45.000 191.600 48.733 C 191.600 52.708,190.879 56.209,188.770 62.476 C 184.743 74.442,189.892 81.165,201.430 79.007 C 210.108 77.383,209.698 73.663,200.800 73.292 C 195.693 73.079,194.800 72.652,194.800 70.422 C 194.800 68.582,196.132 62.664,197.204 59.739 C 199.349 53.887,199.302 45.964,197.096 41.721 C 196.273 40.137,195.601 38.337,195.603 37.721 C 195.606 36.508,195.477 36.615,201.738 32.610 C 212.444 25.760,216.173 17.004,211.598 9.456 C 209.577 6.121,205.294 4.664,199.926 5.484 M104.595 14.500 C 104.150 19.597,100.330 28.503,95.663 35.323 C 94.639 36.821,92.990 39.477,92.000 41.226 C 90.340 44.159,82.948 52.400,81.978 52.400 C 81.795 52.400,82.024 51.545,82.486 50.500 C 82.949 49.455,83.989 46.420,84.797 43.755 C 85.762 40.576,86.899 37.857,88.107 35.848 C 89.119 34.164,90.243 31.755,90.604 30.493 C 90.966 29.232,91.946 27.120,92.782 25.800 C 93.618 24.480,94.975 22.231,95.796 20.802 C 98.288 16.468,102.856 11.200,104.123 11.200 C 104.832 11.200,104.864 11.423,104.595 14.500 M320.931 28.500 C 317.297 32.239,316.190 34.586,313.996 43.200 C 312.530 48.959,309.785 57.037,307.608 62.000 C 306.691 64.090,305.413 67.619,304.767 69.841 L 303.593 73.882 304.446 75.841 C 305.806 78.965,306.141 79.200,309.247 79.200 L 311.970 79.200 320.036 71.184 C 324.472 66.775,328.304 63.234,328.551 63.316 C 328.846 63.414,329.068 65.643,329.200 69.833 L 329.400 76.200 332.400 76.326 C 336.237 76.488,337.908 75.976,340.540 73.832 C 341.709 72.879,343.094 71.871,343.616 71.591 C 344.139 71.312,345.680 70.208,347.041 69.138 C 350.497 66.422,350.976 66.762,352.197 72.800 C 353.229 77.899,356.363 80.000,362.941 80.000 L 367.113 80.000 369.157 78.163 C 371.174 76.349,371.200 76.296,371.200 73.977 C 371.200 71.199,370.994 71.025,367.200 70.602 C 360.774 69.885,359.057 67.882,361.197 63.600 C 363.838 58.317,364.389 50.926,362.318 48.568 C 360.153 46.101,359.470 46.405,353.023 52.700 C 347.019 58.562,341.900 62.046,341.359 60.638 C 341.230 60.302,342.132 57.006,343.362 53.313 C 346.702 43.293,346.324 39.200,342.059 39.200 C 341.115 39.200,340.504 39.628,339.133 41.253 C 336.009 44.953,330.632 50.481,329.000 51.669 C 328.120 52.310,326.770 53.704,326.000 54.766 C 322.538 59.542,317.600 62.273,317.600 59.411 C 317.600 57.989,320.838 47.046,323.225 40.400 C 327.305 29.041,326.164 23.117,320.931 28.500 M236.939 39.533 C 232.315 41.538,222.688 53.298,221.209 58.749 C 220.992 59.547,220.516 61.280,220.151 62.600 C 218.620 68.138,218.972 73.497,221.090 76.914 C 223.070 80.110,229.898 81.293,234.072 79.163 C 234.974 78.703,236.182 78.244,236.756 78.143 C 239.001 77.747,244.588 73.028,247.491 69.076 C 248.927 67.120,250.081 62.698,251.179 54.944 C 252.043 48.846,250.160 40.818,247.484 39.186 C 245.465 37.955,240.177 38.129,236.939 39.533 M279.000 39.431 C 273.188 41.848,264.336 53.720,262.173 62.000 C 260.317 69.107,261.082 75.104,264.250 78.271 L 265.979 80.000 270.242 80.000 C 273.769 80.000,274.723 79.865,275.766 79.221 C 276.459 78.793,277.651 78.334,278.413 78.201 C 283.359 77.342,290.610 69.066,291.734 63.000 C 292.775 57.372,293.596 51.517,293.390 51.183 C 293.286 51.016,293.033 49.249,292.827 47.256 C 291.955 38.831,287.079 36.071,279.000 39.431 M107.102 46.393 C 98.669 49.383,96.245 52.279,97.044 58.412 C 97.238 59.905,97.519 60.381,98.634 61.112 C 100.446 62.300,100.247 62.381,103.411 59.169 C 108.380 54.125,114.089 52.692,116.273 55.939 L 117.173 57.279 116.230 59.140 C 115.105 61.360,112.237 64.134,107.596 67.492 C 98.434 74.119,97.361 81.319,105.252 83.212 C 107.787 83.821,114.477 86.745,116.978 88.339 C 118.066 89.033,119.218 89.600,119.536 89.600 C 121.103 89.600,123.583 91.825,124.875 94.389 C 127.432 99.466,126.239 109.866,121.739 121.738 C 119.893 126.606,113.567 133.425,108.575 135.926 C 101.112 139.664,84.041 137.608,86.372 133.251 C 88.319 129.614,94.818 123.819,99.804 121.274 C 101.562 120.377,103.540 119.274,104.200 118.824 C 104.860 118.374,107.314 117.366,109.654 116.585 C 114.204 115.066,115.046 114.469,115.444 112.482 C 116.451 107.444,100.548 111.096,90.600 118.188 C 76.995 127.886,73.840 138.631,83.200 143.390 C 104.087 154.009,125.090 141.548,132.735 114.000 C 134.327 108.264,135.006 95.959,133.959 91.804 C 133.122 88.478,125.350 81.439,120.909 79.984 C 119.419 79.496,117.930 78.863,117.600 78.578 C 117.270 78.292,115.784 77.660,114.297 77.172 L 111.593 76.285 115.097 72.643 C 118.386 69.222,119.256 68.076,122.937 62.306 C 126.607 56.553,123.204 47.023,117.200 46.242 C 111.798 45.539,109.412 45.575,107.102 46.393 M243.731 51.411 C 244.147 59.626,243.610 61.430,239.599 65.282 C 232.811 71.802,224.834 73.047,227.885 67.109 C 228.368 66.169,229.153 64.140,229.630 62.600 C 231.267 57.312,233.758 53.889,239.710 48.743 C 243.464 45.498,243.430 45.475,243.731 51.411 M285.693 50.100 C 285.967 61.063,285.310 62.751,278.870 67.636 C 273.067 72.037,266.638 71.864,269.748 67.389 C 270.050 66.955,270.765 65.070,271.336 63.200 C 272.892 58.112,274.761 55.302,279.754 50.547 C 285.303 45.261,285.571 45.241,285.693 50.100 " stroke="none" fill="#ffffff" fill-rule="evenodd"></path><path id="path1" d="M0.000 73.800 L 0.000 147.600 200.000 147.600 L 400.000 147.600 400.000 73.800 L 400.000 0.000 200.000 0.000 L 0.000 0.000 0.000 73.800 M108.359 2.614 C 110.324 4.853,109.930 13.411,107.624 18.528 C 107.210 19.448,106.491 21.338,106.026 22.728 C 104.687 26.736,95.564 43.716,92.341 48.200 C 91.709 49.080,90.897 50.340,90.538 51.000 C 90.179 51.660,87.407 54.758,84.378 57.885 C 78.264 64.199,77.907 64.778,75.062 73.025 C 74.080 75.871,72.270 80.216,71.038 82.680 C 69.807 85.144,68.800 87.283,68.800 87.433 C 68.800 87.976,61.853 101.839,60.799 103.400 C 60.204 104.280,58.979 106.543,58.075 108.428 C 57.171 110.313,55.659 112.820,54.716 113.997 C 53.772 115.175,51.740 118.117,50.200 120.535 C 46.716 126.006,45.970 126.600,42.593 126.600 C 38.841 126.600,36.658 124.325,35.051 118.738 C 34.349 116.299,34.107 106.094,34.734 105.380 C 34.918 105.171,35.378 104.158,35.756 103.128 C 37.033 99.657,40.791 95.881,50.736 88.076 C 54.452 85.160,57.688 85.935,55.953 89.326 C 55.707 89.807,52.678 93.080,49.221 96.600 C 41.282 104.684,39.128 109.617,41.223 114.913 C 42.573 118.326,43.539 118.009,46.447 113.200 C 47.312 111.770,48.715 109.610,49.566 108.400 C 53.650 102.591,65.192 78.881,65.198 76.287 C 65.202 74.918,64.054 75.167,59.251 77.574 C 50.744 81.839,45.550 79.675,49.248 73.408 C 50.201 71.794,50.586 71.600,58.600 68.714 C 61.680 67.605,64.952 66.181,65.872 65.549 C 66.792 64.917,67.701 64.400,67.894 64.400 C 69.119 64.400,70.807 61.483,72.523 56.400 C 74.887 49.400,77.478 42.435,77.934 41.856 C 78.132 41.605,78.691 40.320,79.177 39.000 C 82.185 30.822,93.107 9.829,95.933 6.792 C 100.694 1.675,105.975 -0.101,108.359 2.614 M207.348 6.013 C 209.597 6.708,210.149 7.072,211.146 8.522 C 216.694 16.585,212.994 25.719,201.200 33.080 C 194.607 37.194,194.788 36.793,197.259 41.827 L 198.918 45.207 198.678 50.703 C 198.504 54.665,198.203 56.926,197.597 58.800 C 193.817 70.490,193.961 72.797,198.474 72.803 C 202.821 72.809,208.000 74.152,208.000 75.272 C 208.000 76.330,205.476 78.291,203.541 78.738 C 193.812 80.984,187.927 78.205,187.357 71.098 C 187.120 68.140,187.285 67.116,188.788 62.200 C 192.137 51.251,192.503 46.334,190.192 43.308 C 187.901 40.307,187.822 40.280,182.524 40.706 L 177.878 41.080 175.639 43.448 C 174.408 44.750,172.696 46.622,171.835 47.608 C 170.974 48.594,168.088 51.650,165.422 54.400 C 151.129 69.140,144.949 75.820,143.345 78.261 C 141.271 81.420,141.064 81.586,139.189 81.594 C 134.654 81.614,134.701 78.186,139.300 73.507 C 166.069 46.273,170.718 41.007,171.238 37.331 C 171.689 34.149,172.214 33.464,174.720 32.780 C 177.083 32.136,177.428 31.893,179.806 29.200 C 181.817 26.923,184.253 24.800,184.855 24.800 C 186.642 24.800,187.316 28.135,185.913 30.033 C 183.996 32.625,187.773 33.793,191.747 31.838 C 195.744 29.871,203.599 23.257,204.856 20.800 C 210.310 10.147,199.959 8.433,183.400 17.248 C 181.860 18.068,179.618 19.055,178.417 19.442 C 177.216 19.830,174.836 21.104,173.128 22.273 C 168.750 25.272,166.898 25.197,170.900 22.183 C 172.055 21.313,174.260 19.429,175.800 17.996 C 181.557 12.639,185.814 10.093,193.400 7.472 C 201.023 4.838,202.906 4.641,207.348 6.013 M102.994 12.052 C 99.912 14.249,91.945 26.301,90.651 30.724 C 90.309 31.892,89.414 33.872,88.662 35.124 C 86.483 38.751,86.088 39.678,84.764 44.266 C 84.075 46.649,83.159 49.292,82.728 50.139 C 81.429 52.689,82.249 52.332,85.846 48.779 C 89.160 45.507,90.919 43.185,92.684 39.753 C 93.150 38.848,94.270 37.138,95.172 35.953 C 96.760 33.869,100.792 26.100,103.025 20.821 C 104.025 18.457,105.063 11.200,104.401 11.200 C 104.284 11.200,103.651 11.583,102.994 12.052 M325.678 28.400 C 325.978 30.338,325.690 34.347,325.204 35.000 C 324.277 36.246,317.600 57.798,317.600 59.544 C 317.600 62.132,322.169 59.437,325.961 54.612 C 327.090 53.175,328.197 52.000,328.421 52.000 C 329.071 52.000,335.973 45.178,337.325 43.200 C 339.134 40.552,340.786 39.214,342.256 39.206 C 346.383 39.185,346.734 43.598,343.401 53.598 C 342.145 57.367,341.239 60.572,341.389 60.722 C 342.269 61.602,347.960 57.629,353.163 52.500 C 359.748 46.009,361.200 45.698,363.551 50.274 C 364.460 52.043,363.192 59.378,361.247 63.600 C 359.298 67.829,361.229 69.892,367.774 70.576 C 370.937 70.907,371.200 71.188,371.200 74.240 L 371.200 76.781 369.164 78.391 L 367.128 80.000 362.642 80.000 C 355.814 80.000,353.276 78.142,351.976 72.190 C 350.844 67.014,350.258 66.629,347.266 69.100 C 346.267 69.925,344.858 70.960,344.135 71.400 C 343.412 71.840,341.817 72.994,340.591 73.964 C 337.487 76.419,333.021 77.473,330.226 76.410 L 329.200 76.020 329.200 69.834 C 329.200 65.724,329.051 63.555,328.755 63.372 C 328.495 63.211,324.963 66.441,320.251 71.149 L 312.193 79.200 309.152 79.200 L 306.111 79.200 304.856 76.844 C 304.165 75.548,303.600 74.166,303.600 73.772 C 303.600 72.230,307.721 60.548,308.811 59.000 C 309.248 58.379,313.031 46.533,313.793 43.400 C 315.744 35.374,317.745 31.208,321.143 28.104 C 323.760 25.714,325.278 25.813,325.678 28.400 M247.601 39.064 C 249.580 40.234,250.413 42.350,251.083 47.918 L 251.695 53.000 250.478 59.883 C 249.120 67.567,248.829 68.196,244.653 72.475 C 241.486 75.719,238.456 77.893,236.486 78.336 C 235.550 78.546,234.344 79.007,233.806 79.359 C 231.986 80.552,224.377 80.265,222.807 78.945 C 219.661 76.298,217.793 67.776,219.613 64.375 C 219.841 63.950,220.217 62.575,220.449 61.318 C 221.722 54.432,230.954 42.080,236.800 39.440 C 239.593 38.178,245.739 37.964,247.601 39.064 M290.153 39.612 C 291.642 40.920,292.800 43.668,292.800 45.894 C 292.800 46.638,292.994 48.451,293.231 49.923 C 293.608 52.268,293.530 53.345,292.601 58.600 C 292.018 61.900,291.493 64.960,291.434 65.400 C 291.003 68.652,282.276 77.526,278.808 78.238 C 278.254 78.352,277.030 78.795,276.089 79.222 C 273.737 80.292,266.900 80.341,265.140 79.301 C 260.685 76.670,259.933 64.148,263.787 56.800 C 267.838 49.077,274.262 41.603,278.600 39.564 C 282.293 37.829,288.149 37.853,290.153 39.612 M115.674 46.051 C 116.044 46.243,116.970 46.400,117.730 46.400 C 122.773 46.400,126.487 56.720,123.300 61.876 C 119.803 67.533,117.887 70.143,115.076 73.076 L 111.936 76.352 113.668 76.809 C 114.621 77.060,116.120 77.676,117.000 78.178 C 117.880 78.680,119.770 79.489,121.200 79.977 C 125.595 81.476,133.165 88.250,133.956 91.392 C 136.151 100.107,132.810 118.984,127.536 127.666 C 116.605 145.664,103.011 151.007,85.000 144.383 C 69.306 138.612,80.646 119.383,104.441 111.416 C 109.121 109.849,109.742 109.733,111.680 110.060 C 115.673 110.735,115.600 110.697,115.600 112.133 C 115.600 114.170,114.039 115.345,109.400 116.802 C 107.200 117.493,104.928 118.393,104.352 118.803 C 103.775 119.213,101.621 120.409,99.566 121.461 C 95.358 123.614,87.134 131.130,86.583 133.325 C 85.427 137.932,101.584 139.532,109.208 135.564 C 113.214 133.479,120.128 125.875,121.541 122.000 C 128.193 103.764,127.532 92.920,119.577 89.746 C 118.600 89.356,116.990 88.544,116.000 87.940 C 113.839 86.623,107.275 83.827,104.887 83.207 C 96.960 81.149,98.366 74.088,108.127 66.932 C 116.269 60.963,118.828 56.285,114.808 54.717 C 111.612 53.471,107.325 55.191,103.212 59.370 C 100.265 62.364,100.303 62.352,98.293 60.986 L 96.800 59.971 96.800 56.946 C 96.800 51.807,98.542 49.629,104.574 47.225 C 109.465 45.277,113.379 44.863,115.674 46.051 M238.738 49.729 C 233.267 54.602,231.307 57.515,229.415 63.583 C 228.835 65.443,228.177 67.186,227.953 67.456 C 227.085 68.502,227.706 70.589,228.926 70.729 C 231.908 71.071,238.793 66.978,241.744 63.109 C 243.304 61.063,244.098 56.384,243.611 52.097 C 243.401 50.256,243.336 48.221,243.465 47.575 C 243.853 45.637,242.788 46.122,238.738 49.729 M281.148 49.349 C 276.967 53.030,276.040 54.040,274.271 56.837 C 272.563 59.538,269.932 66.784,269.855 69.000 L 269.800 70.600 271.815 70.551 C 279.580 70.364,286.658 61.314,285.581 52.952 C 285.386 51.438,285.220 49.345,285.213 48.300 C 285.196 45.842,285.102 45.866,281.148 49.349 " stroke="none" fill="#00b7d4" fill-rule="evenodd"></path><path id="path2" d="M104.501 13.000 C 104.505 13.880,104.587 14.193,104.683 13.695 C 104.779 13.198,104.775 12.478,104.675 12.095 C 104.575 11.713,104.496 12.120,104.501 13.000 M176.185 17.700 L 174.200 19.800 176.300 17.815 C 177.455 16.723,178.400 15.778,178.400 15.715 C 178.400 15.417,178.029 15.749,176.185 17.700 M325.693 30.800 C 325.693 31.570,325.775 31.885,325.876 31.500 C 325.976 31.115,325.976 30.485,325.876 30.100 C 325.775 29.715,325.693 30.030,325.693 30.800 M229.789 45.300 L 227.000 48.200 229.900 45.411 C 232.594 42.820,232.983 42.400,232.689 42.400 C 232.628 42.400,231.323 43.705,229.789 45.300 M164.185 47.700 L 162.200 49.800 164.300 47.815 C 165.455 46.723,166.400 45.778,166.400 45.715 C 166.400 45.417,166.029 45.749,164.185 47.700 M285.328 48.800 C 285.328 50.230,285.401 50.815,285.489 50.100 C 285.578 49.385,285.578 48.215,285.489 47.500 C 285.401 46.785,285.328 47.370,285.328 48.800 M98.975 50.500 L 97.800 51.800 99.100 50.625 C 99.815 49.979,100.400 49.394,100.400 49.325 C 100.400 49.016,100.070 49.288,98.975 50.500 M167.200 52.200 C 165.561 53.850,164.310 55.200,164.420 55.200 C 164.530 55.200,165.961 53.850,167.600 52.200 C 169.239 50.550,170.490 49.200,170.380 49.200 C 170.270 49.200,168.839 50.550,167.200 52.200 M85.792 56.100 L 81.800 60.200 85.900 56.208 C 89.708 52.499,90.182 52.000,89.892 52.000 C 89.833 52.000,87.988 53.845,85.792 56.100 M159.375 60.500 L 158.200 61.800 159.500 60.625 C 160.712 59.530,160.984 59.200,160.675 59.200 C 160.606 59.200,160.021 59.785,159.375 60.500 M360.032 66.830 C 360.014 67.177,360.495 67.897,361.100 68.430 L 362.200 69.400 361.351 68.400 C 360.884 67.850,360.403 67.130,360.282 66.800 C 360.095 66.286,360.059 66.291,360.032 66.830 M187.328 69.600 C 187.328 71.030,187.401 71.615,187.489 70.900 C 187.578 70.185,187.578 69.015,187.489 68.300 C 187.401 67.585,187.328 68.170,187.328 69.600 M269.200 69.176 C 269.200 69.823,269.342 70.441,269.516 70.548 C 269.690 70.656,269.761 70.127,269.673 69.372 C 269.476 67.691,269.200 67.577,269.200 69.176 M114.400 73.400 C 112.761 75.050,111.510 76.400,111.620 76.400 C 111.730 76.400,113.161 75.050,114.800 73.400 C 116.439 71.750,117.690 70.400,117.580 70.400 C 117.470 70.400,116.039 71.750,114.400 73.400 M197.491 73.089 C 198.201 73.177,199.461 73.179,200.291 73.092 C 201.121 73.005,200.540 72.933,199.000 72.931 C 197.460 72.929,196.781 73.000,197.491 73.089 M331.700 76.687 C 332.305 76.778,333.295 76.778,333.900 76.687 C 334.505 76.595,334.010 76.520,332.800 76.520 C 331.590 76.520,331.095 76.595,331.700 76.687 M100.000 79.725 C 100.000 79.794,100.585 80.379,101.300 81.025 L 102.600 82.200 101.425 80.900 C 100.330 79.688,100.000 79.416,100.000 79.725 M127.200 83.725 C 127.200 83.794,127.785 84.379,128.500 85.025 L 129.800 86.200 128.625 84.900 C 127.530 83.688,127.200 83.416,127.200 83.725 M131.200 87.725 C 131.200 87.794,131.785 88.379,132.500 89.025 L 133.800 90.200 132.625 88.900 C 131.530 87.688,131.200 87.416,131.200 87.725 M49.400 96.000 C 46.106 99.300,43.500 102.000,43.610 102.000 C 43.720 102.000,46.506 99.300,49.800 96.000 C 53.094 92.700,55.700 90.000,55.590 90.000 C 55.480 90.000,52.694 92.700,49.400 96.000 M39.600 97.400 C 38.628 98.390,37.923 99.200,38.033 99.200 C 38.143 99.200,39.028 98.390,40.000 97.400 C 40.972 96.410,41.677 95.600,41.567 95.600 C 41.457 95.600,40.572 96.410,39.600 97.400 M126.142 101.800 C 126.141 103.780,126.208 104.640,126.292 103.712 C 126.376 102.784,126.377 101.164,126.295 100.112 C 126.212 99.060,126.143 99.820,126.142 101.800 M90.585 128.100 L 88.600 130.200 90.700 128.215 C 92.651 126.371,92.983 126.000,92.685 126.000 C 92.622 126.000,91.677 126.945,90.585 128.100 M115.200 130.600 C 114.228 131.590,113.523 132.400,113.633 132.400 C 113.743 132.400,114.628 131.590,115.600 130.600 C 116.572 129.610,117.277 128.800,117.167 128.800 C 117.057 128.800,116.172 129.610,115.200 130.600 M77.714 135.400 C 77.717 136.500,77.795 136.903,77.887 136.295 C 77.979 135.686,77.977 134.786,77.882 134.295 C 77.787 133.803,77.711 134.300,77.714 135.400 " stroke="none" fill="#3fc9de" fill-rule="evenodd"></path></g></svg>